# xmcd CD database file
#
# Track frame offsets:
#	150
#	16373
#	30218
#	42180
#	67838
#	80185
#	94308
#	107490
#	136428
#	166515
#	191850
#	220215
#	246410
#
# Disc length: 3641 seconds
#
# Revision: 0
# Processed by: cddbd v1.5.1PL2 Copyright (c) Steve Scherf et al.
# Submitted via: CDex 1.51
#
DISCID=aa0e370d
DTITLE=Mark Farina - Red Monster
DYEAR=1900
DGENRE=EUROBEAT
TTITLE0=Killer
TTITLE1=Infatuation
TTITLE2=Dai Dai Dai
TTITLE3=Carillon
TTITLE4=Big Town
TTITLE5=To Reach The Fire
TTITLE6=Keep My Love Alive
TTITLE7=The Rhythm Of The Rain
TTITLE8=Killer (Extended Version)
TTITLE9=Infatuation (Extended Version)
TTITLE10=Dai Dai Dai (L.A.B Mix)
TTITLE11=Cha Cha Cha Cha (Remix '92)
TTITLE12=Gunfire (Remix '92)
EXTD=
EXTT0=
EXTT1=
EXTT2=
EXTT3=
EXTT4=
EXTT5=
EXTT6=
EXTT7=
EXTT8=
EXTT9=
EXTT10=
EXTT11=
EXTT12=
PLAYORDER=
